<svg id="Layer_1" data-name="Layer 1" xmlns="http://www.w3.org/2000/svg" viewBox="0 0 312.724 312.458"><defs><style>.cls-1{fill:none;stroke:#000;stroke-miterlimit:10;stroke-width:0.5px;}</style></defs><path class="cls-1" d="M156.514,156.21,142.921.843c4.548-.4,9.028-.593,13.593-.593Z"/><path class="cls-1" d="M156.514,156.21,121.431,4.247a152.987,152.987,0,0,1,21.49-3.4Z"/><path class="cls-1" d="M156.514,156.21,88.146,16.034A152.758,152.758,0,0,1,121.431,4.247Z"/><path class="cls-1" d="M156.514,156.21,44.326,47.871a145.273,145.273,0,0,1,43.82-31.837Z"/><path class="cls-1" d="M156.514,156.21,2.923,129.128a153.044,153.044,0,0,1,41.4-81.257Z"/><path class="cls-1" d="M156.514,156.21,42.452,262.575C7.441,225.03-5.991,179.684,2.923,129.128Z"/><path class="cls-1" d="M156.514,156.21,256.763,275.683A155.864,155.864,0,0,1,42.452,262.575Z"/><path class="cls-1" d="M156.514,156.21V.25a155.96,155.96,0,0,1,155.96,155.96c0,48.322-18.694,88.412-55.711,119.473Z"/></svg>