<svg width="102" height="102" viewBox="0 0 102 102" fill="none" xmlns="http://www.w3.org/2000/svg">
<path fill-rule="evenodd" clip-rule="evenodd" d="M59.1734 14C64.5945 14 67.3044 14 70.2227 14.9225C73.4087 16.0822 75.9179 18.5914 77.0775 21.7774C78 24.6952 78 27.406 78 32.8267V49.1734C78 54.5945 78 57.3044 77.0775 60.2227C75.9179 63.4087 73.4087 65.9179 70.2227 67.0771C67.3044 68 64.5945 68 59.1734 68H42.8267C37.4055 68 34.6952 68 31.7774 67.0771C28.5914 65.9179 26.0822 63.4087 24.9225 60.2227C24 57.3044 24 54.5945 24 49.1734V32.8267C24 27.406 24 24.6952 24.9225 21.7774C26.0822 18.5914 28.5914 16.0822 31.7774 14.9225C34.6952 14 37.4055 14 42.8267 14L59.1734 14Z" fill="#212121"/>
<rect x="33" y="23" width="36" height="36" rx="6.45" fill="#E46F50"/>
<path d="M33 45.8H69V48.551C69 52.2851 69 54.1522 68.2503 55.5681C67.6453 56.7108 66.7108 57.6453 65.5681 58.2503C64.1522 59 62.2851 59 58.551 59H43.449C39.7149 59 37.8478 59 36.4319 58.2503C35.2892 57.6453 34.3547 56.7108 33.7497 55.5681C33 54.1522 33 52.2851 33 48.551V45.8Z" fill="#EDB45D"/>
<g clip-path="url(#clip0_240_70)">
<rect x="46.05" y="29" width="10.35" height="24.75" fill="white"/>
<path d="M55.4534 26.8334L46.5474 26.8342C46.2334 26.8342 45.9224 26.896 45.6323 27.0161C45.3422 27.1363 45.0786 27.3124 44.8565 27.5344C44.6345 27.7565 44.4583 28.0201 44.3382 28.3102C44.218 28.6004 44.1562 28.9113 44.1563 29.2253L44.1555 52.7755C44.1554 53.0895 44.2172 53.4005 44.3373 53.6906C44.4575 53.9808 44.6336 54.2444 44.8557 54.4664C45.0777 54.6885 45.3413 54.8646 45.6315 54.9848C45.9216 55.1049 46.2325 55.1667 46.5466 55.1666L55.4526 55.1658C55.7666 55.1659 56.0776 55.104 56.3677 54.9839C56.6578 54.8638 56.9214 54.6876 57.1435 54.4656C57.3655 54.2435 57.5417 53.9799 57.6618 53.6898C57.782 53.3997 57.8438 53.0887 57.8437 52.7747L57.8445 29.2245C57.8446 28.9105 57.7828 28.5995 57.6627 28.3094C57.5425 28.0192 57.3664 27.7556 57.1443 27.5336C56.9223 27.3115 56.6587 27.1354 56.3685 27.0153C56.0784 26.8951 55.7675 26.8333 55.4534 26.8334ZM54.9742 52.2971L47.0292 52.2971L47.0275 47.8462L51.0034 47.8462C51.3845 47.8462 51.7499 47.6949 52.0194 47.4254C52.2889 47.1559 52.4402 46.7905 52.4402 46.4094C52.4402 46.0283 52.2889 45.6628 52.0194 45.3934C51.7499 45.1239 51.3845 44.9725 51.0034 44.9725L47.0275 44.9725L47.0275 42.4369L51.0025 42.4377C51.3836 42.4377 51.7491 42.2863 52.0185 42.0169C52.288 41.7474 52.4394 41.3819 52.4394 41.0009C52.4394 40.6198 52.288 40.2543 52.0186 39.9848C51.7491 39.7154 51.3836 39.564 51.0025 39.564L47.0275 39.5631L47.0275 37.0275L51.0034 37.0275C51.3845 37.0275 51.7499 36.8761 52.0194 36.6067C52.2889 36.3372 52.4402 35.9717 52.4402 35.5906C52.4402 35.2096 52.2889 34.8441 52.0194 34.5746C51.7499 34.3052 51.3845 34.1538 51.0034 34.1538L47.0275 34.1538L47.0283 29.7003L54.9733 29.7003L54.9742 52.2971Z" fill="black"/>
</g>
<defs>
<clipPath id="clip0_240_70">
<rect width="30.6" height="30.6" fill="white" transform="translate(29.3625 41) rotate(-45)"/>
</clipPath>
</defs>
</svg>
