<svg width="106" height="106" viewBox="0 0 106 106" fill="none" xmlns="http://www.w3.org/2000/svg">
<g filter="url(#filter0_d_240_49)">
<path d="M41 42.8334C41 37.2982 41 34.5306 42.698 32.7936C42.7295 32.7614 42.7614 32.7295 42.7936 32.698C44.5306 31 47.2982 31 52.8334 31C58.3685 31 61.1361 31 62.8731 32.698C62.9053 32.7295 62.9372 32.7614 62.9687 32.7936C64.6667 34.5306 64.6667 37.2982 64.6667 42.8334C64.6667 48.3685 64.6667 51.1361 62.9687 52.8731C62.9372 52.9053 62.9053 52.9372 62.8731 52.9687C61.1361 54.6667 58.3685 54.6667 52.8334 54.6667C47.2982 54.6667 44.5306 54.6667 42.7936 52.9687C42.7614 52.9372 42.7295 52.9053 42.698 52.8731C41 51.1361 41 48.3685 41 42.8334Z" fill="white"/>
</g>
<path fill-rule="evenodd" clip-rule="evenodd" d="M61.1734 16C66.5945 16 69.3044 16 72.2227 16.9225C75.4087 18.0822 77.9179 20.5914 79.0775 23.7774C80 26.6952 80 29.406 80 34.8267V51.1734C80 56.5945 80 59.3044 79.0775 62.2227C77.9179 65.4087 75.4087 67.9179 72.2227 69.0771C69.3044 70 66.5945 70 61.1734 70H44.8267C39.4055 70 36.6952 70 33.7774 69.0771C30.5914 67.9179 28.0822 65.4087 26.9225 62.2227C26 59.3044 26 56.5945 26 51.1734V34.8267C26 29.406 26 26.6952 26.9225 23.7774C28.0822 20.5914 30.5914 18.0822 33.7774 16.9225C36.6952 16 39.4055 16 44.8267 16L61.1734 16Z" fill="#FBE74D"/>
<rect x="36.125" y="26.125" width="33.75" height="33.75" rx="5.325" fill="white" stroke="black" stroke-width="2.25"/>
<path d="M64.1047 33.3438V38.1719C64.1047 38.556 63.9521 38.9245 63.6805 39.1961C63.4088 39.4677 63.0404 39.6203 62.6563 39.6203C62.2721 39.6203 61.9037 39.4677 61.6321 39.1961C61.3604 38.9245 61.2078 38.556 61.2078 38.1719V34.7922H57.8281C57.444 34.7922 57.0756 34.6396 56.8039 34.368C56.5323 34.0963 56.3797 33.7279 56.3797 33.3438C56.3797 32.9596 56.5323 32.5912 56.8039 32.3196C57.0756 32.0479 57.444 31.8953 57.8281 31.8953H62.6563C63.0404 31.8953 63.4088 32.0479 63.6805 32.3196C63.9521 32.5912 64.1047 32.9596 64.1047 33.3438ZM48.1719 51.2078H44.7922V47.8281C44.7922 47.444 44.6396 47.0756 44.368 46.8039C44.0963 46.5323 43.7279 46.3797 43.3438 46.3797C42.9596 46.3797 42.5912 46.5323 42.3196 46.8039C42.0479 47.0756 41.8953 47.444 41.8953 47.8281V52.6563C41.8953 53.0404 42.0479 53.4088 42.3196 53.6805C42.5912 53.9521 42.9596 54.1047 43.3438 54.1047H48.1719C48.556 54.1047 48.9245 53.9521 49.1961 53.6805C49.4677 53.4088 49.6203 53.0404 49.6203 52.6563C49.6203 52.2721 49.4677 51.9037 49.1961 51.6321C48.9245 51.3604 48.556 51.2078 48.1719 51.2078ZM62.6563 46.3797C62.2721 46.3797 61.9037 46.5323 61.6321 46.8039C61.3604 47.0756 61.2078 47.444 61.2078 47.8281V51.2078H57.8281C57.444 51.2078 57.0756 51.3604 56.8039 51.6321C56.5323 51.9037 56.3797 52.2721 56.3797 52.6563C56.3797 53.0404 56.5323 53.4088 56.8039 53.6805C57.0756 53.9521 57.444 54.1047 57.8281 54.1047H62.6563C63.0404 54.1047 63.4088 53.9521 63.6805 53.6805C63.9521 53.4088 64.1047 53.0404 64.1047 52.6563V47.8281C64.1047 47.444 63.9521 47.0756 63.6805 46.8039C63.4088 46.5323 63.0404 46.3797 62.6563 46.3797ZM48.1719 31.8953H43.3438C42.9596 31.8953 42.5912 32.0479 42.3196 32.3196C42.0479 32.5912 41.8953 32.9596 41.8953 33.3438V38.1719C41.8953 38.556 42.0479 38.9245 42.3196 39.1961C42.5912 39.4677 42.9596 39.6203 43.3438 39.6203C43.7279 39.6203 44.0963 39.4677 44.368 39.1961C44.6396 38.9245 44.7922 38.556 44.7922 38.1719V34.7922H48.1719C48.556 34.7922 48.9245 34.6396 49.1961 34.368C49.4677 34.0963 49.6203 33.7279 49.6203 33.3438C49.6203 32.9596 49.4677 32.5912 49.1961 32.3196C48.9245 32.0479 48.556 31.8953 48.1719 31.8953Z" fill="black"/>
<defs>
<filter id="filter0_d_240_49" x="39.0355" y="30.5389" width="27.5957" height="27.5957" filterUnits="userSpaceOnUse" color-interpolation-filters="sRGB">
<feFlood flood-opacity="0" result="BackgroundImageFix"/>
<feColorMatrix in="SourceAlpha" type="matrix" values="0 0 0 0 0 0 0 0 0 0 0 0 0 0 0 0 0 0 127 0" result="hardAlpha"/>
<feOffset dy="1.50346"/>
<feGaussianBlur stdDeviation="0.982263"/>
<feColorMatrix type="matrix" values="0 0 0 0 0.733333 0 0 0 0 0.697194 0 0 0 0 0.647778 0 0 0 0.15 0"/>
<feBlend mode="normal" in2="BackgroundImageFix" result="effect1_dropShadow_240_49"/>
<feBlend mode="normal" in="SourceGraphic" in2="effect1_dropShadow_240_49" result="shape"/>
</filter>
</defs>
</svg>
